<svg width="373" height="106" viewBox="0 0 373 106" fill="none" xmlns="http://www.w3.org/2000/svg">
<rect x="115.736" y="105.689" width="115.736" height="105.689" rx="20" transform="rotate(-180 115.736 105.689)" fill="#FF8600" fill-opacity="0.819608"/>
<rect x="43.9797" y="10.0405" width="27.8212" height="85.8389" rx="10" fill="white"/>
<rect width="26.8247" height="89.0276" rx="10" transform="matrix(-0.00800862 -0.999968 0.999972 -0.00744521 13.5245 66.5917)" fill="white"/>
<path d="M275.034 70V35.0909H288.807C291.455 35.0909 293.71 35.5966 295.574 36.608C297.438 37.608 298.858 39 299.835 40.7841C300.824 42.5568 301.318 44.6023 301.318 46.9205C301.318 49.2386 300.818 51.2841 299.818 53.0568C298.818 54.8295 297.369 56.2102 295.472 57.1989C293.585 58.1875 291.301 58.6818 288.619 58.6818H279.841V52.767H287.426C288.847 52.767 290.017 52.5227 290.938 52.0341C291.869 51.5341 292.563 50.8466 293.017 49.9716C293.483 49.0852 293.716 48.0682 293.716 46.9205C293.716 45.7614 293.483 44.75 293.017 43.8864C292.563 43.0114 291.869 42.3352 290.938 41.858C290.006 41.3693 288.824 41.125 287.392 41.125H282.415V70H275.034ZM313.237 35.0909V70H305.976V35.0909H313.237ZM335.844 58.8523V43.8182H343.105V70H336.134V65.2443H335.861C335.27 66.7784 334.287 68.0114 332.912 68.9432C331.548 69.875 329.884 70.3409 327.918 70.3409C326.168 70.3409 324.628 69.9432 323.298 69.1477C321.969 68.3523 320.929 67.2216 320.179 65.7557C319.44 64.2898 319.065 62.5341 319.054 60.4886V43.8182H326.315V59.1932C326.327 60.7386 326.741 61.9602 327.56 62.858C328.378 63.7557 329.474 64.2045 330.849 64.2045C331.724 64.2045 332.543 64.0057 333.304 63.608C334.065 63.1989 334.679 62.5966 335.145 61.8011C335.622 61.0057 335.855 60.0227 335.844 58.8523ZM370.697 51.2841L364.05 51.6932C363.936 51.125 363.692 50.6136 363.317 50.1591C362.942 49.6932 362.447 49.3239 361.834 49.0511C361.232 48.767 360.51 48.625 359.669 48.625C358.544 48.625 357.595 48.8636 356.822 49.3409C356.05 49.8068 355.663 50.4318 355.663 51.2159C355.663 51.8409 355.913 52.3693 356.413 52.8011C356.913 53.233 357.771 53.5795 358.987 53.8409L363.726 54.7955C366.271 55.3182 368.169 56.1591 369.419 57.3182C370.669 58.4773 371.294 60 371.294 61.8864C371.294 63.6023 370.788 65.108 369.777 66.4034C368.777 67.6989 367.402 68.7102 365.652 69.4375C363.913 70.1534 361.908 70.5114 359.635 70.5114C356.169 70.5114 353.408 69.7898 351.351 68.3466C349.305 66.892 348.107 64.9148 347.754 62.4148L354.896 62.0398C355.112 63.0966 355.635 63.9034 356.464 64.4602C357.294 65.0057 358.357 65.2784 359.652 65.2784C360.925 65.2784 361.947 65.0341 362.72 64.5455C363.504 64.0455 363.902 63.4034 363.913 62.6193C363.902 61.9602 363.624 61.4205 363.078 61C362.533 60.5682 361.692 60.2386 360.555 60.0114L356.021 59.108C353.464 58.5966 351.561 57.7102 350.311 56.4489C349.072 55.1875 348.453 53.5795 348.453 51.625C348.453 49.9432 348.908 48.4943 349.817 47.2784C350.737 46.0625 352.027 45.125 353.686 44.4659C355.357 43.8068 357.311 43.4773 359.55 43.4773C362.857 43.4773 365.459 44.1761 367.357 45.5739C369.266 46.9716 370.379 48.875 370.697 51.2841Z" fill="#FF8600" fill-opacity="0.819608"/>
<path d="M149.972 45.1307C149.835 43.7557 149.25 42.6875 148.216 41.9261C147.182 41.1648 145.778 40.7841 144.006 40.7841C142.801 40.7841 141.784 40.9545 140.955 41.2955C140.125 41.625 139.489 42.0852 139.045 42.6761C138.614 43.267 138.398 43.9375 138.398 44.6875C138.375 45.3125 138.506 45.858 138.79 46.3239C139.085 46.7898 139.489 47.1932 140 47.5341C140.511 47.8636 141.102 48.1534 141.773 48.4034C142.443 48.642 143.159 48.8466 143.92 49.017L147.057 49.767C148.58 50.108 149.977 50.5625 151.25 51.1307C152.523 51.6989 153.625 52.3977 154.557 53.2273C155.489 54.0568 156.21 55.0341 156.722 56.1591C157.244 57.2841 157.511 58.5739 157.523 60.0284C157.511 62.1648 156.966 64.017 155.886 65.5852C154.818 67.142 153.273 68.3523 151.25 69.2159C149.239 70.0682 146.813 70.4943 143.972 70.4943C141.153 70.4943 138.699 70.0625 136.608 69.1989C134.528 68.3352 132.903 67.0568 131.733 65.3636C130.574 63.6591 129.966 61.5511 129.909 59.0398H137.051C137.131 60.2102 137.466 61.1875 138.057 61.9716C138.659 62.7443 139.46 63.3295 140.46 63.7273C141.472 64.1136 142.614 64.3068 143.886 64.3068C145.136 64.3068 146.222 64.125 147.142 63.7614C148.074 63.3977 148.795 62.892 149.307 62.2443C149.818 61.5966 150.074 60.8523 150.074 60.0114C150.074 59.2273 149.841 58.5682 149.375 58.0341C148.92 57.5 148.25 57.0455 147.364 56.6705C146.489 56.2955 145.415 55.9545 144.142 55.6477L140.341 54.6932C137.398 53.9773 135.074 52.858 133.369 51.3352C131.665 49.8125 130.818 47.7614 130.83 45.1818C130.818 43.0682 131.381 41.2216 132.517 39.642C133.665 38.0625 135.239 36.8295 137.239 35.9432C139.239 35.0568 141.511 34.6136 144.057 34.6136C146.648 34.6136 148.909 35.0568 150.841 35.9432C152.784 36.8295 154.295 38.0625 155.375 39.642C156.455 41.2216 157.011 43.0511 157.045 45.1307H149.972ZM169.817 70.4943C168.146 70.4943 166.658 70.2045 165.351 69.625C164.044 69.0341 163.01 68.1648 162.249 67.017C161.499 65.858 161.124 64.4148 161.124 62.6875C161.124 61.233 161.391 60.0114 161.925 59.0227C162.459 58.0341 163.186 57.2386 164.107 56.6364C165.027 56.0341 166.072 55.5795 167.243 55.2727C168.425 54.9659 169.663 54.75 170.959 54.625C172.482 54.4659 173.709 54.3182 174.641 54.1818C175.572 54.0341 176.249 53.8182 176.669 53.5341C177.089 53.25 177.3 52.8295 177.3 52.2727V52.1705C177.3 51.0909 176.959 50.2557 176.277 49.6648C175.607 49.0739 174.652 48.7784 173.413 48.7784C172.107 48.7784 171.067 49.0682 170.294 49.6477C169.521 50.2159 169.01 50.9318 168.76 51.7955L162.044 51.25C162.385 49.6591 163.055 48.2841 164.055 47.125C165.055 45.9545 166.345 45.0568 167.925 44.4318C169.516 43.7955 171.357 43.4773 173.447 43.4773C174.902 43.4773 176.294 43.6477 177.624 43.9886C178.964 44.3295 180.152 44.858 181.186 45.5739C182.232 46.2898 183.055 47.2102 183.658 48.3352C184.26 49.4489 184.561 50.7841 184.561 52.3409V70H177.675V66.3693H177.47C177.05 67.1875 176.487 67.9091 175.783 68.5341C175.078 69.1477 174.232 69.6307 173.243 69.983C172.254 70.3239 171.112 70.4943 169.817 70.4943ZM171.896 65.483C172.964 65.483 173.908 65.2727 174.726 64.8523C175.544 64.4205 176.186 63.8409 176.652 63.1136C177.118 62.3864 177.351 61.5625 177.351 60.642V57.8636C177.124 58.0114 176.811 58.1477 176.413 58.2727C176.027 58.3864 175.589 58.4943 175.101 58.5966C174.612 58.6875 174.124 58.7727 173.635 58.8523C173.146 58.9205 172.703 58.983 172.305 59.0398C171.453 59.1648 170.709 59.3636 170.072 59.6364C169.436 59.9091 168.942 60.2784 168.589 60.7443C168.237 61.1989 168.061 61.767 168.061 62.4489C168.061 63.4375 168.419 64.1932 169.135 64.7159C169.862 65.2273 170.783 65.483 171.896 65.483ZM197.456 35.0909V70H190.195V35.0909H197.456ZM220.062 58.8523V43.8182H227.324V70H220.352V65.2443H220.08C219.489 66.7784 218.506 68.0114 217.131 68.9432C215.767 69.875 214.102 70.3409 212.136 70.3409C210.386 70.3409 208.847 69.9432 207.517 69.1477C206.188 68.3523 205.148 67.2216 204.398 65.7557C203.659 64.2898 203.284 62.5341 203.273 60.4886V43.8182H210.534V59.1932C210.545 60.7386 210.96 61.9602 211.778 62.858C212.597 63.7557 213.693 64.2045 215.068 64.2045C215.943 64.2045 216.761 64.0057 217.523 63.608C218.284 63.1989 218.898 62.5966 219.364 61.8011C219.841 61.0057 220.074 60.0227 220.062 58.8523ZM242.78 70.4261C240.791 70.4261 238.99 69.9148 237.376 68.892C235.774 67.858 234.501 66.3409 233.558 64.3409C232.626 62.3295 232.161 59.8636 232.161 56.9432C232.161 53.9432 232.643 51.4489 233.609 49.4602C234.575 47.4602 235.859 45.9659 237.462 44.9773C239.075 43.9773 240.842 43.4773 242.763 43.4773C244.229 43.4773 245.45 43.7273 246.428 44.2273C247.416 44.7159 248.212 45.3295 248.814 46.0682C249.428 46.7955 249.893 47.5114 250.212 48.2159H250.433V35.0909H257.678V70H250.518V65.8068H250.212C249.871 66.5341 249.388 67.2557 248.763 67.9716C248.149 68.6761 247.348 69.2614 246.359 69.7273C245.382 70.1932 244.189 70.4261 242.78 70.4261ZM245.081 64.6477C246.251 64.6477 247.24 64.3295 248.047 63.6932C248.865 63.0455 249.49 62.142 249.922 60.983C250.365 59.8239 250.587 58.4659 250.587 56.9091C250.587 55.3523 250.371 54 249.939 52.8523C249.507 51.7045 248.882 50.8182 248.064 50.1932C247.246 49.5682 246.251 49.2557 245.081 49.2557C243.888 49.2557 242.882 49.5795 242.064 50.2273C241.246 50.875 240.626 51.7727 240.206 52.9205C239.786 54.0682 239.575 55.3977 239.575 56.9091C239.575 58.4318 239.786 59.7784 240.206 60.9489C240.638 62.108 241.257 63.017 242.064 63.6761C242.882 64.3239 243.888 64.6477 245.081 64.6477Z" fill="#FF8600" fill-opacity="0.819608"/>
</svg>
