<svg width="245" height="58" viewBox="0 0 245 58" fill="none" xmlns="http://www.w3.org/2000/svg">
<path d="M147.034 46V11.0909H160.807C163.455 11.0909 165.71 11.5966 167.574 12.608C169.438 13.608 170.858 15 171.835 16.7841C172.824 18.5568 173.318 20.6023 173.318 22.9205C173.318 25.2386 172.818 27.2841 171.818 29.0568C170.818 30.8295 169.369 32.2102 167.472 33.1989C165.585 34.1875 163.301 34.6818 160.619 34.6818H151.841V28.767H159.426C160.847 28.767 162.017 28.5227 162.938 28.0341C163.869 27.5341 164.563 26.8466 165.017 25.9716C165.483 25.0852 165.716 24.0682 165.716 22.9205C165.716 21.7614 165.483 20.75 165.017 19.8864C164.563 19.0114 163.869 18.3352 162.938 17.858C162.006 17.3693 160.824 17.125 159.392 17.125H154.415V46H147.034ZM185.237 11.0909V46H177.976V11.0909H185.237ZM207.844 34.8523V19.8182H215.105V46H208.134V41.2443H207.861C207.27 42.7784 206.287 44.0114 204.912 44.9432C203.548 45.875 201.884 46.3409 199.918 46.3409C198.168 46.3409 196.628 45.9432 195.298 45.1477C193.969 44.3523 192.929 43.2216 192.179 41.7557C191.44 40.2898 191.065 38.5341 191.054 36.4886V19.8182H198.315V35.1932C198.327 36.7386 198.741 37.9602 199.56 38.858C200.378 39.7557 201.474 40.2045 202.849 40.2045C203.724 40.2045 204.543 40.0057 205.304 39.608C206.065 39.1989 206.679 38.5966 207.145 37.8011C207.622 37.0057 207.855 36.0227 207.844 34.8523ZM242.697 27.2841L236.05 27.6932C235.936 27.125 235.692 26.6136 235.317 26.1591C234.942 25.6932 234.447 25.3239 233.834 25.0511C233.232 24.767 232.51 24.625 231.669 24.625C230.544 24.625 229.595 24.8636 228.822 25.3409C228.05 25.8068 227.663 26.4318 227.663 27.2159C227.663 27.8409 227.913 28.3693 228.413 28.8011C228.913 29.233 229.771 29.5795 230.987 29.8409L235.726 30.7955C238.271 31.3182 240.169 32.1591 241.419 33.3182C242.669 34.4773 243.294 36 243.294 37.8864C243.294 39.6023 242.788 41.108 241.777 42.4034C240.777 43.6989 239.402 44.7102 237.652 45.4375C235.913 46.1534 233.908 46.5114 231.635 46.5114C228.169 46.5114 225.408 45.7898 223.351 44.3466C221.305 42.892 220.107 40.9148 219.754 38.4148L226.896 38.0398C227.112 39.0966 227.635 39.9034 228.464 40.4602C229.294 41.0057 230.357 41.2784 231.652 41.2784C232.925 41.2784 233.947 41.0341 234.72 40.5455C235.504 40.0455 235.902 39.4034 235.913 38.6193C235.902 37.9602 235.624 37.4205 235.078 37C234.533 36.5682 233.692 36.2386 232.555 36.0114L228.021 35.108C225.464 34.5966 223.561 33.7102 222.311 32.4489C221.072 31.1875 220.453 29.5795 220.453 27.625C220.453 25.9432 220.908 24.4943 221.817 23.2784C222.737 22.0625 224.027 21.125 225.686 20.4659C227.357 19.8068 229.311 19.4773 231.55 19.4773C234.857 19.4773 237.459 20.1761 239.357 21.5739C241.266 22.9716 242.379 24.875 242.697 27.2841Z" fill="#FF8600" fill-opacity="0.819608"/>
<path d="M21.9716 21.1307C21.8352 19.7557 21.25 18.6875 20.2159 17.9261C19.1818 17.1648 17.7784 16.7841 16.0057 16.7841C14.8011 16.7841 13.7841 16.9545 12.9545 17.2955C12.125 17.625 11.4886 18.0852 11.0455 18.6761C10.6136 19.267 10.3977 19.9375 10.3977 20.6875C10.375 21.3125 10.5057 21.858 10.7898 22.3239C11.0852 22.7898 11.4886 23.1932 12 23.5341C12.5114 23.8636 13.1023 24.1534 13.7727 24.4034C14.4432 24.642 15.1591 24.8466 15.9205 25.017L19.0568 25.767C20.5795 26.108 21.9773 26.5625 23.25 27.1307C24.5227 27.6989 25.625 28.3977 26.5568 29.2273C27.4886 30.0568 28.2102 31.0341 28.7216 32.1591C29.2443 33.2841 29.5114 34.5739 29.5227 36.0284C29.5114 38.1648 28.9659 40.017 27.8864 41.5852C26.8182 43.142 25.2727 44.3523 23.25 45.2159C21.2386 46.0682 18.8125 46.4943 15.9716 46.4943C13.1534 46.4943 10.6989 46.0625 8.60795 45.1989C6.52841 44.3352 4.90341 43.0568 3.73295 41.3636C2.57386 39.6591 1.96591 37.5511 1.90909 35.0398H9.05114C9.13068 36.2102 9.46591 37.1875 10.0568 37.9716C10.6591 38.7443 11.4602 39.3295 12.4602 39.7273C13.4716 40.1136 14.6136 40.3068 15.8864 40.3068C17.1364 40.3068 18.2216 40.125 19.142 39.7614C20.0739 39.3977 20.7955 38.892 21.3068 38.2443C21.8182 37.5966 22.0739 36.8523 22.0739 36.0114C22.0739 35.2273 21.8409 34.5682 21.375 34.0341C20.9205 33.5 20.25 33.0455 19.3636 32.6705C18.4886 32.2955 17.4148 31.9545 16.142 31.6477L12.3409 30.6932C9.39773 29.9773 7.07386 28.858 5.36932 27.3352C3.66477 25.8125 2.81818 23.7614 2.82955 21.1818C2.81818 19.0682 3.38068 17.2216 4.51705 15.642C5.66477 14.0625 7.23864 12.8295 9.23864 11.9432C11.2386 11.0568 13.5114 10.6136 16.0568 10.6136C18.6477 10.6136 20.9091 11.0568 22.8409 11.9432C24.7841 12.8295 26.2955 14.0625 27.375 15.642C28.4545 17.2216 29.0114 19.0511 29.0455 21.1307H21.9716ZM41.8168 46.4943C40.1463 46.4943 38.6577 46.2045 37.3509 45.625C36.044 45.0341 35.0099 44.1648 34.2486 43.017C33.4986 41.858 33.1236 40.4148 33.1236 38.6875C33.1236 37.233 33.3906 36.0114 33.9247 35.0227C34.4588 34.0341 35.1861 33.2386 36.1065 32.6364C37.027 32.0341 38.0724 31.5795 39.2429 31.2727C40.4247 30.9659 41.6634 30.75 42.9588 30.625C44.4815 30.4659 45.7088 30.3182 46.6406 30.1818C47.5724 30.0341 48.2486 29.8182 48.669 29.5341C49.0895 29.25 49.2997 28.8295 49.2997 28.2727V28.1705C49.2997 27.0909 48.9588 26.2557 48.277 25.6648C47.6065 25.0739 46.652 24.7784 45.4134 24.7784C44.1065 24.7784 43.0668 25.0682 42.294 25.6477C41.5213 26.2159 41.0099 26.9318 40.7599 27.7955L34.044 27.25C34.3849 25.6591 35.0554 24.2841 36.0554 23.125C37.0554 21.9545 38.3452 21.0568 39.9247 20.4318C41.5156 19.7955 43.3565 19.4773 45.4474 19.4773C46.902 19.4773 48.294 19.6477 49.6236 19.9886C50.9645 20.3295 52.152 20.858 53.1861 21.5739C54.2315 22.2898 55.0554 23.2102 55.6577 24.3352C56.2599 25.4489 56.5611 26.7841 56.5611 28.3409V46H49.6747V42.3693H49.4702C49.0497 43.1875 48.4872 43.9091 47.7827 44.5341C47.0781 45.1477 46.2315 45.6307 45.2429 45.983C44.2543 46.3239 43.1122 46.4943 41.8168 46.4943ZM43.8963 41.483C44.9645 41.483 45.9077 41.2727 46.7259 40.8523C47.544 40.4205 48.1861 39.8409 48.652 39.1136C49.1179 38.3864 49.3509 37.5625 49.3509 36.642V33.8636C49.1236 34.0114 48.8111 34.1477 48.4134 34.2727C48.027 34.3864 47.5895 34.4943 47.1009 34.5966C46.6122 34.6875 46.1236 34.7727 45.6349 34.8523C45.1463 34.9205 44.7031 34.983 44.3054 35.0398C43.4531 35.1648 42.7088 35.3636 42.0724 35.6364C41.4361 35.9091 40.9418 36.2784 40.5895 36.7443C40.2372 37.1989 40.0611 37.767 40.0611 38.4489C40.0611 39.4375 40.419 40.1932 41.1349 40.7159C41.8622 41.2273 42.7827 41.483 43.8963 41.483ZM69.456 11.0909V46H62.1946V11.0909H69.456ZM92.0625 34.8523V19.8182H99.3239V46H92.3523V41.2443H92.0795C91.4886 42.7784 90.5057 44.0114 89.1307 44.9432C87.767 45.875 86.1023 46.3409 84.1364 46.3409C82.3864 46.3409 80.8466 45.9432 79.517 45.1477C78.1875 44.3523 77.1477 43.2216 76.3977 41.7557C75.6591 40.2898 75.2841 38.5341 75.2727 36.4886V19.8182H82.5341V35.1932C82.5455 36.7386 82.9602 37.9602 83.7784 38.858C84.5966 39.7557 85.6932 40.2045 87.0682 40.2045C87.9432 40.2045 88.7614 40.0057 89.5227 39.608C90.2841 39.1989 90.8977 38.5966 91.3636 37.8011C91.8409 37.0057 92.0739 36.0227 92.0625 34.8523ZM114.78 46.4261C112.791 46.4261 110.99 45.9148 109.376 44.892C107.774 43.858 106.501 42.3409 105.558 40.3409C104.626 38.3295 104.161 35.8636 104.161 32.9432C104.161 29.9432 104.643 27.4489 105.609 25.4602C106.575 23.4602 107.859 21.9659 109.462 20.9773C111.075 19.9773 112.842 19.4773 114.763 19.4773C116.229 19.4773 117.45 19.7273 118.428 20.2273C119.416 20.7159 120.212 21.3295 120.814 22.0682C121.428 22.7955 121.893 23.5114 122.212 24.2159H122.433V11.0909H129.678V46H122.518V41.8068H122.212C121.871 42.5341 121.388 43.2557 120.763 43.9716C120.149 44.6761 119.348 45.2614 118.359 45.7273C117.382 46.1932 116.189 46.4261 114.78 46.4261ZM117.081 40.6477C118.251 40.6477 119.24 40.3295 120.047 39.6932C120.865 39.0455 121.49 38.142 121.922 36.983C122.365 35.8239 122.587 34.4659 122.587 32.9091C122.587 31.3523 122.371 30 121.939 28.8523C121.507 27.7045 120.882 26.8182 120.064 26.1932C119.246 25.5682 118.251 25.2557 117.081 25.2557C115.888 25.2557 114.882 25.5795 114.064 26.2273C113.246 26.875 112.626 27.7727 112.206 28.9205C111.786 30.0682 111.575 31.3977 111.575 32.9091C111.575 34.4318 111.786 35.7784 112.206 36.9489C112.638 38.108 113.257 39.017 114.064 39.6761C114.882 40.3239 115.888 40.6477 117.081 40.6477Z" fill="#0E3B73"/>
</svg>
